<svg width="412" height="184" viewBox="0 0 412 184" fill="none" xmlns="http://www.w3.org/2000/svg">
<g clip-path="url(#clip0_32_708)">
<path d="M361.51 174.22C358.47 174.22 356.55 173.02 356.55 171.46C356.55 170.62 357.11 169.9 358.11 169.9C358.95 169.9 359.35 170.38 359.59 171.06C359.99 172.1 359.95 173.62 361.87 173.62C363.67 173.62 365.39 172.26 365.39 170.46C365.39 168.86 364.03 167.5 362.59 165.98C361.07 164.38 359.47 162.62 359.47 160.26C359.47 157.5 361.83 155.1 365.91 155.1C368.87 155.1 370.39 156.38 370.39 157.7C370.39 158.54 369.79 159.3 368.83 159.3C368.15 159.3 367.63 158.9 367.31 158.06C366.95 157.02 366.99 155.78 365.07 155.78C363.27 155.78 361.99 156.86 361.99 158.62C361.99 160.38 363.39 161.78 364.83 163.18C366.51 164.78 368.27 166.42 368.27 168.86C368.27 171.74 365.67 174.22 361.51 174.22ZM375.68 173.5C379.68 173.5 383.08 167.54 383.08 161.9C383.08 159.06 382 157.9 380.12 157.9C378.6 157.9 377.04 158.66 375.2 160.46L373.28 167.38C372.16 171.34 373.44 173.5 375.68 173.5ZM372.44 182.66L372.32 183.02H362.44L362.6 182.66C364.32 182.54 366.08 181.9 366.84 179.1L371.88 160.38C372.56 158.02 371.84 156.94 369.56 157.06L369.64 156.7L376.4 155.26L376.68 155.38L375.64 159.14C378.56 156.02 380.52 155.1 382.52 155.1C384.96 155.1 387 156.62 387 160.62C387 167.62 380.36 174.22 375.64 174.22C373.6 174.22 372.56 173.22 372 172.02L370.08 179.1C369.52 181.18 370 182.42 372.44 182.66ZM391.69 171.3C393.17 171.3 395.13 170.3 397.45 167.3L398.73 162.34C399.69 158.7 398.77 155.66 396.93 155.66C394.37 155.66 389.29 162.02 389.29 168.14C389.29 170.38 390.29 171.3 391.69 171.3ZM396.85 169.54L397.09 168.7C393.49 173.26 391.33 174.22 389.69 174.22C387.41 174.22 385.65 172.46 385.65 169.14C385.65 162.94 391.81 155.1 396.89 155.1C398.57 155.1 400.13 156.14 401.01 157.54L403.65 155.34L403.89 155.46L400.29 169.46C399.81 171.34 400.05 172.02 400.77 172.02C401.69 172.02 403.13 170.7 404.37 169.1L404.73 169.38C402.61 172.26 400.01 173.98 398.29 173.98C396.93 173.98 396.01 172.82 396.85 169.54Z" fill="url(#paint0_linear_32_708)"/>
<path d="M153.34 10.32C152.51 12.05 151.6 13.73 150.63 15.37C141.83 14.39 129.73 13.4 115.08 13.4C92.5001 13.4 63.2901 22.33 39.2301 38.24C17.7901 52.33 6.26007 71.48 5.68007 85.05C5.19007 95.68 7.35007 102.73 10.2601 107.62C13.1601 112.48 16.8501 115.28 19.6301 117.37C20.0301 117.61 20.7401 117.97 21.2101 118.32C21.4801 118.51 21.7801 118.76 21.9901 119.08C22.2201 119.42 22.3701 119.88 22.2601 120.4C22.2001 120.67 22.1001 120.93 21.9401 121.15C21.8401 121.3 21.7201 121.43 21.5701 121.54C21.2101 121.81 20.8101 121.91 20.4601 121.93C19.8001 121.97 19.1201 121.74 18.6301 121.5L18.6101 121.48C13.2901 118.62 8.38007 114.71 4.94007 108.83C1.50007 102.96 -0.429933 95.2 0.0800668 84.75C0.390067 77.84 3.57007 67.93 9.37007 57.97C14.9901 48.31 23.1501 38.5 33.7001 31.26L34.7301 30.57C59.1101 14.45 87.3101 7.40002 114.88 7.40002C130.87 7.40002 144.62 8.98002 153.34 10.32Z" fill="url(#paint1_linear_32_708)"/>
<path d="M197.7 75.66C196.68 73.8 194.72 72.88 191.79 72.88C187.04 72.88 180.66 75.83 172.66 81.73C164.66 87.63 157.82 94.65 152.14 102.8C146.45 110.95 142.73 118.26 140.97 124.73C139.58 129.85 139.83 133.91 141.7 136.92C143.57 139.92 146.65 141.42 150.94 141.42C158.57 141.42 167.85 137.44 176.46 129.47C177.37 127.27 179.01 124 181.39 119.64C172.83 131.08 162.16 136.8 155.09 136.8C152.53 136.8 150.82 135.96 149.97 134.29C149.12 132.62 149.15 130.11 150.06 126.77C151.16 122.7 153.06 118.39 155.76 113.85C168.34 109.04 178.16 104.04 185.21 98.84C192.26 93.65 196.55 88.23 198.09 82.59C198.84 79.82 198.71 77.51 197.7 75.66ZM191.6 82.82C190.42 87.16 186.42 91.99 179.6 97.32C172.77 102.64 165.58 106.82 158.02 109.85C163.28 100.08 168.87 92.16 174.77 86.07C180.68 79.99 185.2 76.95 188.34 76.95C189.95 76.95 191.04 77.43 191.59 78.4C192.13 79.36 192.14 80.84 191.6 82.82Z" fill="url(#paint2_linear_32_708)"/>
<path d="M205.31 120.43C204.34 121.85 203.38 123.17 202.45 124.39C202.14 125.25 201.87 126.1 201.64 126.93C201.27 128.32 201.03 129.61 200.93 130.81C203.51 127.94 206.11 124.48 208.75 120.43H205.31Z" fill="url(#paint3_linear_32_708)"/>
<path d="M263.2 75.62C262.7 73.79 261.67 72.88 260.1 72.88C257.44 72.88 255.63 74.65 254.66 78.2C254.22 79.82 254.18 81.73 254.52 83.92C255.07 87.47 254.86 91.02 253.9 94.57C251.46 103.56 246.06 112.81 237.7 122.34C229.35 131.88 222.11 136.64 216 136.64C213.96 136.64 212.44 135.64 211.41 133.63C210.39 131.61 210.38 128.78 211.37 125.13C212.75 120.06 215.49 114.33 219.6 107.93C223.72 101.53 230.49 92.49 239.94 80.79C242.38 77.76 243.75 75.69 244.05 74.6C244.36 73.45 243.91 72.88 242.71 72.88C241.15 72.88 239.44 74.44 237.6 77.58C236.34 79.72 235.08 80.79 233.83 80.79C232.58 80.79 231.81 80.06 231.37 78.59C230.16 74.78 228.4 72.88 226.11 72.88C221.82 72.88 217.36 76.92 212.7 85.02H215.92C217.62 82.41 219.33 81.1 221.05 81.1C222.15 81.1 223.2 81.75 224.2 83.06C225.12 84.31 226.43 84.94 228.16 84.94C229.89 84.94 231.88 84.29 234.33 82.98C233.97 83.35 233.29 84.1 232.3 85.25C231.14 86.66 229.9 88.05 228.59 89.4C220.14 98.23 213.85 105.52 209.73 111.26C206.34 116 203.91 120.37 202.45 124.39C202.14 125.25 201.87 126.1 201.64 126.93C201.27 128.32 201.03 129.61 200.93 130.81C200.72 133.54 201.23 135.8 202.47 137.58C204.25 140.14 207.21 141.42 211.34 141.42C217.55 141.42 224.3 138.48 231.59 132.61C238.88 126.73 245.41 118.74 251.18 108.64C256.95 98.53 260.78 90.01 262.67 83.06C263.52 79.93 263.69 77.45 263.2 75.62Z" fill="url(#paint4_linear_32_708)"/>
<path d="M326.99 75.07L340.64 51.33H331.24L317.59 75.07H306.86L304.83 78.51H315.64L296.47 111.89C294.81 114.78 293.34 117.36 292.08 119.65C290.06 123.31 288.56 126.19 287.58 128.3C286.92 129.7 286.5 130.76 286.3 131.47C285.52 134.34 285.67 136.72 286.75 138.6C287.84 140.48 289.71 141.42 292.37 141.42C295.77 141.42 300.07 139.37 305.28 135.27C307.02 133.9 308.77 132.33 310.52 130.55C314.01 127 317.52 122.64 321.05 117.45H317.6C317.08 118.17 316.56 118.88 316.04 119.56C312.68 124.01 309.27 127.77 305.82 130.84C301.83 134.4 298.89 136.17 297.01 136.17C295.96 136.17 295.26 135.85 294.89 135.19C294.51 134.54 294.5 133.59 294.84 132.33C295.34 130.51 298.83 123.98 305.33 112.75L324.96 78.51H336.71L338.74 75.07H326.99Z" fill="url(#paint5_linear_32_708)"/>
<path d="M364.55 51.33H355.15L341.5 75.07H330.77L328.74 78.51H339.55L320.38 111.89C318.73 114.74 317.29 117.3 316.04 119.56C313.14 124.81 311.3 128.48 310.52 130.55C310.38 130.9 310.28 131.21 310.21 131.47C309.43 134.34 309.58 136.72 310.66 138.6C311.75 140.48 313.62 141.42 316.28 141.42C319.68 141.42 323.98 139.37 329.19 135.27C331.93 133.12 334.67 130.47 337.42 127.31C339.92 124.44 342.44 121.15 344.96 117.45H341.51C340.78 118.47 340.05 119.45 339.31 120.4C336.16 124.48 332.97 127.96 329.73 130.84C325.74 134.4 322.8 136.17 320.92 136.17C319.87 136.17 319.17 135.85 318.8 135.19C318.43 134.54 318.41 133.59 318.75 132.33C319.25 130.51 322.74 123.98 329.24 112.75L348.87 78.51H360.62L362.65 75.07H350.9L364.55 51.33Z" fill="url(#paint6_linear_32_708)"/>
<path d="M380.76 135.23C379.82 135.23 379.19 134.96 378.87 134.41C378.55 133.86 378.53 133.06 378.81 132.02C379.2 130.61 381.31 126.59 385.15 119.96L411.55 74.05H402.15L398.39 80.71C398.57 78.1 398.05 76.14 396.81 74.83C395.57 73.53 393.59 72.88 390.88 72.88C386.23 72.88 379.89 75.59 371.86 81.02C363.83 86.45 356.68 93.23 350.4 101.35C345.22 108.05 341.52 114.4 339.31 120.4C338.83 121.68 338.43 122.94 338.09 124.18C337.79 125.27 337.57 126.32 337.42 127.31C336.8 131.15 337.21 134.29 338.63 136.76C340.43 139.86 343.15 141.42 346.81 141.42C350.73 141.42 355.45 139.45 360.99 135.51C366.52 131.56 371.01 127.58 374.45 123.56C372.47 127.01 371.19 129.8 370.61 131.94C369.89 134.6 369.93 136.85 370.74 138.68C371.55 140.51 373.18 141.42 375.64 141.42C378.82 141.42 382.83 139.5 387.66 135.66C392.48 131.82 396.56 127.55 399.87 122.85H396.58C389.64 131.11 384.37 135.23 380.76 135.23ZM364.85 129.36C358.64 134.42 353.82 136.95 350.37 136.95C348.28 136.95 346.95 136.08 346.38 134.33C345.81 132.58 346 129.98 346.93 126.54C349.09 118.6 355.29 108.34 365.55 95.75C375.81 83.16 384.12 76.87 390.5 76.87C392.59 76.87 393.98 77.64 394.69 79.18C395.39 80.72 395.45 82.59 394.85 84.78C393.83 88.54 390.13 95.64 383.74 106.09C377.35 116.54 371.06 124.29 364.85 129.36Z" fill="url(#paint7_linear_32_708)"/>
<path d="M260.36 113.85C272.94 109.04 282.76 104.04 289.81 98.84C296.86 93.65 301.16 88.23 302.69 82.59C303.44 79.82 303.31 77.51 302.3 75.66C301.28 73.8 299.32 72.88 296.39 72.88C291.64 72.88 285.26 75.83 277.27 81.73C269.27 87.63 262.42 94.65 256.74 102.8C251.05 110.95 247.33 118.26 245.57 124.73C244.19 129.85 244.43 133.91 246.3 136.92C248.18 139.92 251.25 141.42 255.54 141.42C263.53 141.42 276.96 137.05 287.58 128.3C290.76 125.68 293.69 122.66 296.15 119.25H292.39C292.29 119.39 292.19 119.52 292.08 119.65C283.39 131.08 266.76 136.8 259.69 136.8C257.13 136.8 255.42 135.96 254.57 134.29C253.72 132.62 253.75 130.11 254.66 126.77C255.76 122.7 257.66 118.39 260.36 113.85ZM279.38 86.07C285.28 79.99 289.8 76.95 292.94 76.95C294.56 76.95 295.64 77.43 296.19 78.4C296.73 79.36 296.74 80.84 296.2 82.82C295.02 87.16 291.02 91.99 284.2 97.32C277.37 102.64 270.18 106.82 262.62 109.85C267.88 100.08 273.47 92.16 279.38 86.07Z" fill="url(#paint8_linear_32_708)"/>
<path d="M184.89 22.6201C180.09 21.5301 175.24 20.6201 170.46 19.5201C168.96 19.1701 167.46 18.8101 165.98 18.4101L167.13 12.3201C180.02 14.9101 193.27 17.2301 205.3 22.4001C203.82 23.3501 202.24 24.3901 200.43 25.6001C199.9 25.9601 199.36 26.3201 198.82 26.6901C194.3 24.9301 189.62 23.6901 184.89 22.6201Z" fill="url(#paint9_linear_32_708)"/>
<path d="M223.94 59.26C221.27 68.16 215.79 75.82 211.22 83.76C205.71 93.34 200.2 102.92 194.69 112.49C194.3 113.18 193.89 113.86 193.51 114.55C192.78 115.86 191.38 118.23 189.3 121.68C186.55 126.22 184.86 129.67 184.22 132.02C183.79 133.59 183.77 134.76 184.16 135.54C184.55 136.33 185.34 136.72 186.55 136.72C188.32 136.72 190.87 135.49 194.2 133.04C196.74 131.17 199.49 128.28 202.45 124.39C202.14 125.25 201.87 126.1 201.64 126.93C201.27 128.32 201.03 129.61 200.93 130.81C194.6 137.88 188.47 141.42 182.53 141.42C179.66 141.42 177.62 140.47 176.41 138.56C175.21 136.65 174.99 134.26 175.77 131.39C175.91 130.88 176.14 130.24 176.46 129.47C177.37 127.27 179.01 124 181.39 119.64C182.83 116.99 184.55 113.93 186.54 110.48C189.35 105.59 192.16 100.69 194.97 95.8C200.52 84.72 207.1 74.21 213.41 63.55C216.28 58.73 218.59 54.63 218.1 48.82C217.67 43.69 215.29 38.86 211.89 35.04C211.89 35.04 211.883 35.0333 211.87 35.02L212.53 34.6C214.3 33.52 216.07 32.43 217.86 31.35C218.11 31.2 218.36 31.05 218.62 30.89C219.71 32 220.71 33.21 221.57 34.52C226.26 41.68 226.39 51.07 223.94 59.26Z" fill="url(#paint10_linear_32_708)"/>
<path fill-rule="evenodd" clip-rule="evenodd" d="M162.62 19.02C162.62 19.02 162.61 19.05 162.6 19.07V19.05C162.6 19.05 162.62 19.03 162.62 19.02Z" fill="url(#paint11_linear_32_708)"/>
<path fill-rule="evenodd" clip-rule="evenodd" d="M294.651 17.77C293.691 11.4 288.961 6.00001 283.191 3.12001C277.431 0.250008 270.761 -0.359992 264.341 0.180008C253.951 1.06001 244.001 4.77001 234.581 9.25001C230.391 11.24 226.271 13.39 222.221 15.66C217.581 18.27 213.021 21.02 208.531 23.89C206.371 25.26 204.231 26.67 202.111 28.09C190.971 35.59 180.241 43.71 169.701 51.99C161.301 58.6 153.031 65.37 144.841 72.23C141.091 75.35 137.261 78.55 133.401 81.78C115.391 96.86 96.5905 112.59 81.3205 122.77C73.7405 127.96 67.5905 131.48 63.1005 133.6C60.8505 134.66 59.0405 135.36 57.7005 135.75C57.0205 135.94 56.4905 136.05 56.0805 136.09C55.8805 136.11 55.7305 136.11 55.6205 136.1C55.5605 136.1 55.5205 136.09 55.4905 136.08H55.4505L55.3505 136.03H55.2405L55.0605 135.98C54.8605 135.94 54.7705 135.9 54.7405 135.88C54.7305 135.86 54.7205 135.83 54.7105 135.79C54.7105 135.69 54.6905 135.55 54.6805 135.35C55.1505 133.92 56.5805 131.96 59.2305 129.17C61.9205 126.32 65.7405 122.75 70.7405 118.15C84.3405 106.16 99.9605 92.34 113.381 79.32C120.991 71.71 128.101 64.6 134.641 57.65C141.181 50.71 147.161 43.93 152.481 37C152.551 36.9 152.631 36.8 152.701 36.7C154.391 34.29 156.041 31.88 157.521 29.33C158.661 27.36 159.721 25.34 160.701 23.29C161.201 22.25 161.671 21.21 162.131 20.16C162.291 19.8 162.451 19.44 162.601 19.07V19.05C162.601 19.05 162.621 19.03 162.621 19.02C162.811 18.49 162.971 18 163.111 17.53C164.001 14.65 164.141 12.81 164.141 11.92C164.141 11.85 164.141 11.78 164.141 11.72C164.141 11.69 164.141 11.67 164.141 11.64C164.141 11.44 164.131 11.32 164.121 11.29C163.991 9.48001 163.481 7.72001 162.621 6.13001C162.171 5.30001 161.441 4.13001 160.451 3.92001C159.601 3.74001 159.021 4.33001 158.751 5.06001C153.991 18.92 144.261 29.93 134.601 40.62C126.341 49.76 117.861 58.72 109.001 67.28C105.201 70.93 101.271 74.64 97.3005 78.39C85.6005 89.44 73.5305 100.85 63.3605 111.92C57.7405 117.95 53.9405 122.75 51.5205 126.54C49.1305 130.3 48.0105 133.17 47.8905 135.33C47.6505 138.5 49.9005 141.17 53.4305 141.4C55.3005 141.51 57.5205 141.11 59.9105 140.38C62.3105 139.65 64.9405 138.57 67.6705 137.25C73.1305 134.63 79.0205 131.05 84.2405 127.44C101.591 115.87 119.611 101.18 139.491 84.97C143.751 81.5 148.081 77.97 152.521 74.38C154.531 72.77 156.541 71.15 158.571 69.55C174.981 56.54 191.861 43.9 209.671 32.86C210.101 32.59 210.541 32.32 210.971 32.05C212.741 30.96 214.521 29.87 216.321 28.78C231.861 19.4 248.661 10.43 266.981 9.45001C271.431 9.21001 275.961 9.50001 280.201 10.9C284.441 12.29 288.371 14.85 290.921 18.51C291.651 19.57 292.821 20.88 293.951 20.25C294.501 19.95 294.691 19.31 294.721 18.65C294.731 18.35 294.701 18.05 294.661 17.77H294.651ZM164.021 11.7H164.031V11.72C164.031 11.72 164.021 11.72 164.021 11.7Z" fill="url(#paint12_linear_32_708)"/>
</g>
<defs>
<linearGradient id="paint0_linear_32_708" x1="380.64" y1="155.1" x2="380.64" y2="183.02" gradientUnits="userSpaceOnUse">
<stop stop-color="#F3D6B1"/>
<stop offset="1" stop-color="#C19161"/>
</linearGradient>
<linearGradient id="paint1_linear_32_708" x1="76.6695" y1="7.40002" x2="76.6695" y2="121.935" gradientUnits="userSpaceOnUse">
<stop stop-color="#F3D6B1"/>
<stop offset="1" stop-color="#C19161"/>
</linearGradient>
<linearGradient id="paint2_linear_32_708" x1="169.327" y1="72.88" x2="169.327" y2="141.42" gradientUnits="userSpaceOnUse">
<stop stop-color="#F3D6B1"/>
<stop offset="1" stop-color="#C19161"/>
</linearGradient>
<linearGradient id="paint3_linear_32_708" x1="204.84" y1="120.43" x2="204.84" y2="130.81" gradientUnits="userSpaceOnUse">
<stop stop-color="#F3D6B1"/>
<stop offset="1" stop-color="#C19161"/>
</linearGradient>
<linearGradient id="paint4_linear_32_708" x1="232.178" y1="72.88" x2="232.178" y2="141.42" gradientUnits="userSpaceOnUse">
<stop stop-color="#F3D6B1"/>
<stop offset="1" stop-color="#C19161"/>
</linearGradient>
<linearGradient id="paint5_linear_32_708" x1="313.225" y1="51.33" x2="313.225" y2="141.42" gradientUnits="userSpaceOnUse">
<stop stop-color="#F3D6B1"/>
<stop offset="1" stop-color="#C19161"/>
</linearGradient>
<linearGradient id="paint6_linear_32_708" x1="337.135" y1="51.33" x2="337.135" y2="141.42" gradientUnits="userSpaceOnUse">
<stop stop-color="#F3D6B1"/>
<stop offset="1" stop-color="#C19161"/>
</linearGradient>
<linearGradient id="paint7_linear_32_708" x1="374.345" y1="72.88" x2="374.345" y2="141.42" gradientUnits="userSpaceOnUse">
<stop stop-color="#F3D6B1"/>
<stop offset="1" stop-color="#C19161"/>
</linearGradient>
<linearGradient id="paint8_linear_32_708" x1="273.93" y1="72.88" x2="273.93" y2="141.42" gradientUnits="userSpaceOnUse">
<stop stop-color="#F3D6B1"/>
<stop offset="1" stop-color="#C19161"/>
</linearGradient>
<linearGradient id="paint9_linear_32_708" x1="185.64" y1="12.3201" x2="185.64" y2="26.6901" gradientUnits="userSpaceOnUse">
<stop stop-color="#F3D6B1"/>
<stop offset="1" stop-color="#C19161"/>
</linearGradient>
<linearGradient id="paint10_linear_32_708" x1="200.414" y1="30.89" x2="200.414" y2="141.42" gradientUnits="userSpaceOnUse">
<stop stop-color="#F3D6B1"/>
<stop offset="1" stop-color="#C19161"/>
</linearGradient>
<linearGradient id="paint11_linear_32_708" x1="162.61" y1="19.02" x2="162.61" y2="19.07" gradientUnits="userSpaceOnUse">
<stop stop-color="#F3D6B1"/>
<stop offset="1" stop-color="#C19161"/>
</linearGradient>
<linearGradient id="paint12_linear_32_708" x1="171.298" y1="0.00219727" x2="171.298" y2="141.418" gradientUnits="userSpaceOnUse">
<stop stop-color="#F3D6B1"/>
<stop offset="1" stop-color="#C19161"/>
</linearGradient>
<clipPath id="clip0_32_708">
<rect width="411.55" height="183.02" fill="white"/>
</clipPath>
</defs>
</svg>
